<mxfile host="app.diagrams.net" agent="Mozilla/5.0 (Windows NT 10.0; Win64; x64) AppleWebKit/537.36 (KHTML, like Gecko) Chrome/138.0.0.0 Safari/537.36" version="28.0.9">
  <diagram name="Page-1" id="sTCOb8kUyohQ4zQmgA-d">
    <mxGraphModel dx="1224" dy="1102" grid="1" gridSize="10" guides="1" tooltips="1" connect="1" arrows="1" fold="1" page="1" pageScale="1" pageWidth="827" pageHeight="1169" math="0" shadow="0">
      <root>
        <mxCell id="0" />
        <mxCell id="1" parent="0" />
        <mxCell id="RCXpMh4MzhsI3ItjMN-l-2" style="edgeStyle=orthogonalEdgeStyle;rounded=0;orthogonalLoop=1;jettySize=auto;html=1;exitX=0.5;exitY=1;exitDx=0;exitDy=0;exitPerimeter=0;entryX=0.5;entryY=0;entryDx=0;entryDy=0;" parent="1" source="RCXpMh4MzhsI3ItjMN-l-3" target="RCXpMh4MzhsI3ItjMN-l-5" edge="1">
          <mxGeometry relative="1" as="geometry" />
        </mxCell>
        <mxCell id="RCXpMh4MzhsI3ItjMN-l-3" value="Start" style="rounded=1;whiteSpace=wrap;html=1;fillColor=#d5e8d4;strokeColor=#82b366;strokeWidth=2;shape=mxgraph.flowchart.start_1;" parent="1" vertex="1">
          <mxGeometry x="310" y="245" width="120" height="60" as="geometry" />
        </mxCell>
        <mxCell id="RCXpMh4MzhsI3ItjMN-l-4" style="edgeStyle=orthogonalEdgeStyle;rounded=0;orthogonalLoop=1;jettySize=auto;html=1;exitX=0.5;exitY=1;exitDx=0;exitDy=0;entryX=0.5;entryY=0;entryDx=0;entryDy=0;" parent="1" source="RCXpMh4MzhsI3ItjMN-l-5" target="RCXpMh4MzhsI3ItjMN-l-10" edge="1">
          <mxGeometry relative="1" as="geometry" />
        </mxCell>
        <mxCell id="RCXpMh4MzhsI3ItjMN-l-5" value="RTC" style="shape=parallelogram;perimeter=parallelogramPerimeter;whiteSpace=wrap;html=1;fixedSize=1;fillColor=#fff2cc;strokeColor=#d6b656;" parent="1" vertex="1">
          <mxGeometry x="310" y="325" width="120" height="60" as="geometry" />
        </mxCell>
        <mxCell id="RCXpMh4MzhsI3ItjMN-l-6" style="edgeStyle=orthogonalEdgeStyle;rounded=0;orthogonalLoop=1;jettySize=auto;html=1;exitX=0.5;exitY=1;exitDx=0;exitDy=0;entryX=0.5;entryY=0;entryDx=0;entryDy=0;" parent="1" source="RCXpMh4MzhsI3ItjMN-l-7" target="RCXpMh4MzhsI3ItjMN-l-12" edge="1">
          <mxGeometry relative="1" as="geometry" />
        </mxCell>
        <mxCell id="RCXpMh4MzhsI3ItjMN-l-7" value="Setting_config" style="shape=parallelogram;whiteSpace=wrap;html=1;backgroundOutline=1;fillColor=#fff2cc;strokeColor=#d6b656;rounded=0;perimeter=parallelogramPerimeter;fixedSize=1;" parent="1" vertex="1">
          <mxGeometry x="275" y="490" width="190" height="55" as="geometry" />
        </mxCell>
        <mxCell id="RCXpMh4MzhsI3ItjMN-l-8" value="Error States" style="shape=parallelogram;perimeter=parallelogramPerimeter;whiteSpace=wrap;html=1;fixedSize=1;fillColor=#fff2cc;strokeColor=#d6b656;" parent="1" vertex="1">
          <mxGeometry x="310" y="770" width="120" height="60" as="geometry" />
        </mxCell>
        <mxCell id="RCXpMh4MzhsI3ItjMN-l-9" style="edgeStyle=orthogonalEdgeStyle;rounded=0;orthogonalLoop=1;jettySize=auto;html=1;exitX=0.5;exitY=1;exitDx=0;exitDy=0;entryX=0.5;entryY=0;entryDx=0;entryDy=0;" parent="1" source="RCXpMh4MzhsI3ItjMN-l-10" target="RCXpMh4MzhsI3ItjMN-l-7" edge="1">
          <mxGeometry relative="1" as="geometry" />
        </mxCell>
        <mxCell id="RCXpMh4MzhsI3ItjMN-l-10" value="Device ID" style="shape=parallelogram;perimeter=parallelogramPerimeter;whiteSpace=wrap;html=1;fixedSize=1;fillColor=#fff2cc;strokeColor=#d6b656;" parent="1" vertex="1">
          <mxGeometry x="310" y="405" width="120" height="60" as="geometry" />
        </mxCell>
        <mxCell id="RCXpMh4MzhsI3ItjMN-l-11" style="edgeStyle=orthogonalEdgeStyle;rounded=0;orthogonalLoop=1;jettySize=auto;html=1;exitX=0.5;exitY=1;exitDx=0;exitDy=0;entryX=0.5;entryY=0;entryDx=0;entryDy=0;" parent="1" source="RCXpMh4MzhsI3ItjMN-l-12" target="RCXpMh4MzhsI3ItjMN-l-16" edge="1">
          <mxGeometry relative="1" as="geometry" />
        </mxCell>
        <mxCell id="RCXpMh4MzhsI3ItjMN-l-12" value="Dispense Mode" style="shape=parallelogram;perimeter=parallelogramPerimeter;whiteSpace=wrap;html=1;fixedSize=1;fillColor=#fff2cc;strokeColor=#d6b656;" parent="1" vertex="1">
          <mxGeometry x="310" y="565" width="120" height="60" as="geometry" />
        </mxCell>
        <mxCell id="RCXpMh4MzhsI3ItjMN-l-13" value="END" style="rounded=1;whiteSpace=wrap;html=1;fillColor=#d5e8d4;strokeColor=#82b366;strokeWidth=2;shape=mxgraph.flowchart.terminator;" parent="1" vertex="1">
          <mxGeometry x="310" y="1050" width="120" height="60" as="geometry" />
        </mxCell>
        <mxCell id="RCXpMh4MzhsI3ItjMN-l-14" style="edgeStyle=orthogonalEdgeStyle;rounded=0;orthogonalLoop=1;jettySize=auto;html=1;exitX=0.5;exitY=1;exitDx=0;exitDy=0;entryX=0.5;entryY=0;entryDx=0;entryDy=0;" parent="1" source="RCXpMh4MzhsI3ItjMN-l-16" target="RCXpMh4MzhsI3ItjMN-l-8" edge="1">
          <mxGeometry relative="1" as="geometry" />
        </mxCell>
        <mxCell id="RCXpMh4MzhsI3ItjMN-l-15" style="edgeStyle=orthogonalEdgeStyle;rounded=0;orthogonalLoop=1;jettySize=auto;html=1;exitX=1;exitY=0.5;exitDx=0;exitDy=0;entryX=0.5;entryY=0;entryDx=0;entryDy=0;" parent="1" source="RCXpMh4MzhsI3ItjMN-l-16" target="RCXpMh4MzhsI3ItjMN-l-22" edge="1">
          <mxGeometry relative="1" as="geometry">
            <mxPoint x="495" y="683" as="targetPoint" />
            <Array as="points">
              <mxPoint x="560" y="683" />
              <mxPoint x="560" y="770" />
            </Array>
          </mxGeometry>
        </mxCell>
        <mxCell id="RCXpMh4MzhsI3ItjMN-l-16" value="&lt;div&gt;Error State?&lt;/div&gt;" style="rhombus;whiteSpace=wrap;html=1;fillColor=#e1d5e7;strokeColor=#9673a6;" parent="1" vertex="1">
          <mxGeometry x="300" y="640" width="140" height="80" as="geometry" />
        </mxCell>
        <mxCell id="RCXpMh4MzhsI3ItjMN-l-17" value="NO" style="text;html=1;align=center;verticalAlign=middle;resizable=0;points=[];autosize=1;strokeColor=none;fillColor=none;" parent="1" vertex="1">
          <mxGeometry x="370" y="715" width="40" height="30" as="geometry" />
        </mxCell>
        <mxCell id="RCXpMh4MzhsI3ItjMN-l-18" style="edgeStyle=orthogonalEdgeStyle;rounded=0;orthogonalLoop=1;jettySize=auto;html=1;exitX=0.5;exitY=1;exitDx=0;exitDy=0;entryX=0.5;entryY=0;entryDx=0;entryDy=0;entryPerimeter=0;" parent="1" source="RCXpMh4MzhsI3ItjMN-l-31" target="RCXpMh4MzhsI3ItjMN-l-13" edge="1">
          <mxGeometry relative="1" as="geometry" />
        </mxCell>
        <mxCell id="RCXpMh4MzhsI3ItjMN-l-21" style="edgeStyle=orthogonalEdgeStyle;rounded=0;orthogonalLoop=1;jettySize=auto;html=1;exitX=0.5;exitY=1;exitDx=0;exitDy=0;entryX=0.5;entryY=0;entryDx=0;entryDy=0;" parent="1" source="RCXpMh4MzhsI3ItjMN-l-22" target="RCXpMh4MzhsI3ItjMN-l-23" edge="1">
          <mxGeometry relative="1" as="geometry" />
        </mxCell>
        <mxCell id="RCXpMh4MzhsI3ItjMN-l-22" value="Error States" style="shape=parallelogram;perimeter=parallelogramPerimeter;whiteSpace=wrap;html=1;fixedSize=1;fillColor=#fff2cc;strokeColor=#d6b656;" parent="1" vertex="1">
          <mxGeometry x="495" y="770" width="120" height="60" as="geometry" />
        </mxCell>
        <mxCell id="RCXpMh4MzhsI3ItjMN-l-23" value="Error Code" style="shape=parallelogram;perimeter=parallelogramPerimeter;whiteSpace=wrap;html=1;fixedSize=1;fillColor=#fff2cc;strokeColor=#d6b656;" parent="1" vertex="1">
          <mxGeometry x="495" y="860" width="120" height="60" as="geometry" />
        </mxCell>
        <mxCell id="RCXpMh4MzhsI3ItjMN-l-24" style="edgeStyle=orthogonalEdgeStyle;rounded=0;orthogonalLoop=1;jettySize=auto;html=1;exitX=0.5;exitY=1;exitDx=0;exitDy=0;entryX=1;entryY=0.5;entryDx=0;entryDy=0;" parent="1" source="RCXpMh4MzhsI3ItjMN-l-23" target="RCXpMh4MzhsI3ItjMN-l-31" edge="1">
          <mxGeometry relative="1" as="geometry" />
        </mxCell>
        <mxCell id="RCXpMh4MzhsI3ItjMN-l-25" value="YES&lt;div&gt;&lt;br&gt;&lt;/div&gt;" style="text;html=1;align=center;verticalAlign=middle;resizable=0;points=[];autosize=1;strokeColor=none;fillColor=none;" parent="1" vertex="1">
          <mxGeometry x="430" y="655" width="50" height="40" as="geometry" />
        </mxCell>
        <mxCell id="RCXpMh4MzhsI3ItjMN-l-27" value="&lt;font style=&quot;font-size: 21px;&quot;&gt;WRITE LOG&lt;/font&gt;" style="text;html=1;align=center;verticalAlign=middle;whiteSpace=wrap;rounded=0;fillColor=#dae8fc;strokeColor=#6c8ebf;" parent="1" vertex="1">
          <mxGeometry x="180" y="180" width="380" height="30" as="geometry" />
        </mxCell>
        <mxCell id="RCXpMh4MzhsI3ItjMN-l-32" value="" style="edgeStyle=orthogonalEdgeStyle;rounded=0;orthogonalLoop=1;jettySize=auto;html=1;exitX=0.5;exitY=1;exitDx=0;exitDy=0;entryX=0.5;entryY=0;entryDx=0;entryDy=0;entryPerimeter=0;" parent="1" source="RCXpMh4MzhsI3ItjMN-l-8" target="RCXpMh4MzhsI3ItjMN-l-31" edge="1">
          <mxGeometry relative="1" as="geometry">
            <mxPoint x="370" y="830" as="sourcePoint" />
            <mxPoint x="370" y="1030" as="targetPoint" />
          </mxGeometry>
        </mxCell>
        <mxCell id="RCXpMh4MzhsI3ItjMN-l-31" value="Write to LOG.txt" style="rounded=0;whiteSpace=wrap;html=1;fillColor=#f8cecc;strokeColor=#b85450;strokeWidth=2;shape=label;size=0.25;" parent="1" vertex="1">
          <mxGeometry x="310" y="950" width="120" height="60" as="geometry" />
        </mxCell>
      </root>
    </mxGraphModel>
  </diagram>
</mxfile>
